<mxfile host="app.diagrams.net" modified="2023-10-17T19:17:24.318Z" agent="Mozilla/5.0 (Windows NT 10.0; Win64; x64) AppleWebKit/537.36 (KHTML, like Gecko) Chrome/118.0.0.0 Safari/537.36" etag="OGh4W3omXy3y5-hcMDfF" version="22.0.4" type="device">
  <diagram id="R2lEEEUBdFMjLlhIrx00" name="Page-1">
    <mxGraphModel dx="1235" dy="628" grid="1" gridSize="12" guides="1" tooltips="1" connect="1" arrows="1" fold="1" page="1" pageScale="1" pageWidth="850" pageHeight="1100" math="0" shadow="0" extFonts="Permanent Marker^https://fonts.googleapis.com/css?family=Permanent+Marker">
      <root>
        <mxCell id="0" />
        <mxCell id="1" parent="0" />
        <mxCell id="v8KTxebTHkAycU05WxjB-2" value="Tenant" style="rounded=0;whiteSpace=wrap;html=1;" vertex="1" parent="1">
          <mxGeometry x="156" y="390" width="80" height="30" as="geometry" />
        </mxCell>
        <mxCell id="v8KTxebTHkAycU05WxjB-76" value="" style="edgeStyle=orthogonalEdgeStyle;rounded=0;orthogonalLoop=1;jettySize=auto;html=1;" edge="1" parent="1" source="v8KTxebTHkAycU05WxjB-4" target="v8KTxebTHkAycU05WxjB-68">
          <mxGeometry relative="1" as="geometry" />
        </mxCell>
        <mxCell id="v8KTxebTHkAycU05WxjB-78" style="edgeStyle=orthogonalEdgeStyle;rounded=0;orthogonalLoop=1;jettySize=auto;html=1;entryX=1;entryY=0.5;entryDx=0;entryDy=0;exitX=0;exitY=1;exitDx=0;exitDy=0;" edge="1" parent="1" source="v8KTxebTHkAycU05WxjB-4" target="v8KTxebTHkAycU05WxjB-58">
          <mxGeometry relative="1" as="geometry">
            <Array as="points">
              <mxPoint x="444" y="460" />
            </Array>
          </mxGeometry>
        </mxCell>
        <mxCell id="v8KTxebTHkAycU05WxjB-4" value="House Owner" style="rounded=0;whiteSpace=wrap;html=1;" vertex="1" parent="1">
          <mxGeometry x="444" y="390" width="80" height="30" as="geometry" />
        </mxCell>
        <mxCell id="v8KTxebTHkAycU05WxjB-72" value="" style="edgeStyle=orthogonalEdgeStyle;rounded=0;orthogonalLoop=1;jettySize=auto;html=1;" edge="1" parent="1" source="v8KTxebTHkAycU05WxjB-5" target="v8KTxebTHkAycU05WxjB-60">
          <mxGeometry relative="1" as="geometry" />
        </mxCell>
        <mxCell id="v8KTxebTHkAycU05WxjB-73" value="" style="edgeStyle=orthogonalEdgeStyle;rounded=0;orthogonalLoop=1;jettySize=auto;html=1;" edge="1" parent="1" source="v8KTxebTHkAycU05WxjB-5" target="v8KTxebTHkAycU05WxjB-60">
          <mxGeometry relative="1" as="geometry" />
        </mxCell>
        <mxCell id="v8KTxebTHkAycU05WxjB-5" value="House" style="rounded=0;whiteSpace=wrap;html=1;" vertex="1" parent="1">
          <mxGeometry x="696" y="390" width="80" height="30" as="geometry" />
        </mxCell>
        <mxCell id="v8KTxebTHkAycU05WxjB-6" value="&lt;font style=&quot;font-size: 12px;&quot;&gt;can&lt;/font&gt;" style="rhombus;whiteSpace=wrap;html=1;" vertex="1" parent="1">
          <mxGeometry x="168.5" y="286" width="55" height="50" as="geometry" />
        </mxCell>
        <mxCell id="v8KTxebTHkAycU05WxjB-7" value="Payment" style="rounded=0;whiteSpace=wrap;html=1;" vertex="1" parent="1">
          <mxGeometry x="156" y="202" width="80" height="30" as="geometry" />
        </mxCell>
        <mxCell id="v8KTxebTHkAycU05WxjB-8" value="&lt;font style=&quot;font-size: 12px;&quot;&gt;Approved by&lt;/font&gt;" style="rhombus;whiteSpace=wrap;html=1;" vertex="1" parent="1">
          <mxGeometry x="312" y="381" width="60" height="48" as="geometry" />
        </mxCell>
        <mxCell id="v8KTxebTHkAycU05WxjB-9" value="&lt;font style=&quot;font-size: 12px;&quot;&gt;have&lt;/font&gt;" style="rhombus;whiteSpace=wrap;html=1;" vertex="1" parent="1">
          <mxGeometry x="576" y="380" width="55" height="50" as="geometry" />
        </mxCell>
        <mxCell id="v8KTxebTHkAycU05WxjB-10" value="Rent&amp;nbsp;" style="rounded=0;whiteSpace=wrap;html=1;" vertex="1" parent="1">
          <mxGeometry x="444" y="202" width="80" height="30" as="geometry" />
        </mxCell>
        <mxCell id="v8KTxebTHkAycU05WxjB-11" value="&lt;font style=&quot;font-size: 12px;&quot;&gt;collect&lt;/font&gt;" style="rhombus;whiteSpace=wrap;html=1;" vertex="1" parent="1">
          <mxGeometry x="456.5" y="286" width="55" height="50" as="geometry" />
        </mxCell>
        <mxCell id="v8KTxebTHkAycU05WxjB-12" value="&lt;font style=&quot;font-size: 12px;&quot;&gt;have&lt;/font&gt;" style="rhombus;whiteSpace=wrap;html=1;" vertex="1" parent="1">
          <mxGeometry x="708.5" y="466" width="55" height="50" as="geometry" />
        </mxCell>
        <mxCell id="v8KTxebTHkAycU05WxjB-71" value="" style="edgeStyle=orthogonalEdgeStyle;rounded=0;orthogonalLoop=1;jettySize=auto;html=1;" edge="1" parent="1" source="v8KTxebTHkAycU05WxjB-13" target="v8KTxebTHkAycU05WxjB-64">
          <mxGeometry relative="1" as="geometry" />
        </mxCell>
        <mxCell id="v8KTxebTHkAycU05WxjB-13" value="Floor" style="rounded=0;whiteSpace=wrap;html=1;" vertex="1" parent="1">
          <mxGeometry x="696" y="562" width="80" height="30" as="geometry" />
        </mxCell>
        <mxCell id="v8KTxebTHkAycU05WxjB-14" value="Flat" style="rounded=0;whiteSpace=wrap;html=1;" vertex="1" parent="1">
          <mxGeometry x="696" y="754" width="80" height="30" as="geometry" />
        </mxCell>
        <mxCell id="v8KTxebTHkAycU05WxjB-15" value="&lt;font style=&quot;font-size: 12px;&quot;&gt;have&lt;/font&gt;" style="rhombus;whiteSpace=wrap;html=1;" vertex="1" parent="1">
          <mxGeometry x="708.5" y="644" width="55" height="50" as="geometry" />
        </mxCell>
        <mxCell id="v8KTxebTHkAycU05WxjB-16" value="&lt;font style=&quot;font-size: 12px;&quot;&gt;can see&lt;/font&gt;" style="rhombus;whiteSpace=wrap;html=1;" vertex="1" parent="1">
          <mxGeometry x="168.5" y="478" width="55" height="50" as="geometry" />
        </mxCell>
        <mxCell id="v8KTxebTHkAycU05WxjB-17" value="Reviews &amp;amp; Rating" style="rounded=0;whiteSpace=wrap;html=1;" vertex="1" parent="1">
          <mxGeometry x="156" y="592" width="80" height="30" as="geometry" />
        </mxCell>
        <mxCell id="v8KTxebTHkAycU05WxjB-18" value="&lt;font style=&quot;font-size: 12px;&quot;&gt;take&lt;/font&gt;" style="rhombus;whiteSpace=wrap;html=1;" vertex="1" parent="1">
          <mxGeometry x="24.5" y="381" width="55" height="50" as="geometry" />
        </mxCell>
        <mxCell id="v8KTxebTHkAycU05WxjB-19" value="Service" style="rounded=0;whiteSpace=wrap;html=1;" vertex="1" parent="1">
          <mxGeometry x="12" y="592" width="80" height="30" as="geometry" />
        </mxCell>
        <mxCell id="v8KTxebTHkAycU05WxjB-21" value="" style="endArrow=none;html=1;rounded=0;entryX=0.5;entryY=1;entryDx=0;entryDy=0;exitX=0.5;exitY=0;exitDx=0;exitDy=0;" edge="1" parent="1" source="v8KTxebTHkAycU05WxjB-6" target="v8KTxebTHkAycU05WxjB-7">
          <mxGeometry width="50" height="50" relative="1" as="geometry">
            <mxPoint x="168.5" y="300" as="sourcePoint" />
            <mxPoint x="218.5" y="250" as="targetPoint" />
          </mxGeometry>
        </mxCell>
        <mxCell id="v8KTxebTHkAycU05WxjB-22" value="" style="endArrow=none;html=1;rounded=0;entryX=0.5;entryY=1;entryDx=0;entryDy=0;exitX=0.5;exitY=0;exitDx=0;exitDy=0;" edge="1" parent="1" target="v8KTxebTHkAycU05WxjB-6">
          <mxGeometry width="50" height="50" relative="1" as="geometry">
            <mxPoint x="195.66" y="390" as="sourcePoint" />
            <mxPoint x="195.66" y="336" as="targetPoint" />
          </mxGeometry>
        </mxCell>
        <mxCell id="v8KTxebTHkAycU05WxjB-23" value="" style="endArrow=none;html=1;rounded=0;exitX=1;exitY=0.5;exitDx=0;exitDy=0;entryX=0;entryY=0.5;entryDx=0;entryDy=0;" edge="1" parent="1" source="v8KTxebTHkAycU05WxjB-18" target="v8KTxebTHkAycU05WxjB-2">
          <mxGeometry width="50" height="50" relative="1" as="geometry">
            <mxPoint x="72" y="405" as="sourcePoint" />
            <mxPoint x="156" y="406" as="targetPoint" />
          </mxGeometry>
        </mxCell>
        <mxCell id="v8KTxebTHkAycU05WxjB-24" value="" style="endArrow=none;html=1;rounded=0;exitX=1;exitY=0.5;exitDx=0;exitDy=0;entryX=0;entryY=0.5;entryDx=0;entryDy=0;shape=link;" edge="1" parent="1" source="v8KTxebTHkAycU05WxjB-2" target="v8KTxebTHkAycU05WxjB-8">
          <mxGeometry width="50" height="50" relative="1" as="geometry">
            <mxPoint x="252" y="406" as="sourcePoint" />
            <mxPoint x="300" y="406" as="targetPoint" />
          </mxGeometry>
        </mxCell>
        <mxCell id="v8KTxebTHkAycU05WxjB-25" value="" style="endArrow=none;html=1;rounded=0;exitX=1;exitY=0.5;exitDx=0;exitDy=0;entryX=0;entryY=0.5;entryDx=0;entryDy=0;shape=link;" edge="1" parent="1" source="v8KTxebTHkAycU05WxjB-8" target="v8KTxebTHkAycU05WxjB-4">
          <mxGeometry width="50" height="50" relative="1" as="geometry">
            <mxPoint x="384" y="406" as="sourcePoint" />
            <mxPoint x="444" y="406" as="targetPoint" />
          </mxGeometry>
        </mxCell>
        <mxCell id="v8KTxebTHkAycU05WxjB-26" value="" style="endArrow=none;html=1;rounded=0;exitX=1;exitY=0.5;exitDx=0;exitDy=0;entryX=0;entryY=0.5;entryDx=0;entryDy=0;shadow=0;shape=link;" edge="1" parent="1" source="v8KTxebTHkAycU05WxjB-4" target="v8KTxebTHkAycU05WxjB-9">
          <mxGeometry width="50" height="50" relative="1" as="geometry">
            <mxPoint x="384" y="417" as="sourcePoint" />
            <mxPoint x="456" y="417" as="targetPoint" />
          </mxGeometry>
        </mxCell>
        <mxCell id="v8KTxebTHkAycU05WxjB-27" value="" style="endArrow=none;html=1;rounded=0;entryX=0.5;entryY=1;entryDx=0;entryDy=0;exitX=0.5;exitY=0;exitDx=0;exitDy=0;" edge="1" parent="1" source="v8KTxebTHkAycU05WxjB-16" target="v8KTxebTHkAycU05WxjB-2">
          <mxGeometry width="50" height="50" relative="1" as="geometry">
            <mxPoint x="207.66" y="402" as="sourcePoint" />
            <mxPoint x="208" y="348" as="targetPoint" />
          </mxGeometry>
        </mxCell>
        <mxCell id="v8KTxebTHkAycU05WxjB-28" value="" style="endArrow=none;html=1;rounded=0;entryX=0.5;entryY=1;entryDx=0;entryDy=0;exitX=0.5;exitY=0;exitDx=0;exitDy=0;" edge="1" parent="1" source="v8KTxebTHkAycU05WxjB-17" target="v8KTxebTHkAycU05WxjB-16">
          <mxGeometry width="50" height="50" relative="1" as="geometry">
            <mxPoint x="208" y="490" as="sourcePoint" />
            <mxPoint x="208" y="432" as="targetPoint" />
          </mxGeometry>
        </mxCell>
        <mxCell id="v8KTxebTHkAycU05WxjB-29" value="" style="endArrow=none;html=1;rounded=0;entryX=0.5;entryY=1;entryDx=0;entryDy=0;exitX=0.5;exitY=0;exitDx=0;exitDy=0;" edge="1" parent="1" source="v8KTxebTHkAycU05WxjB-19" target="v8KTxebTHkAycU05WxjB-18">
          <mxGeometry width="50" height="50" relative="1" as="geometry">
            <mxPoint x="208" y="604" as="sourcePoint" />
            <mxPoint x="208" y="540" as="targetPoint" />
          </mxGeometry>
        </mxCell>
        <mxCell id="v8KTxebTHkAycU05WxjB-30" value="" style="endArrow=none;html=1;rounded=0;exitX=1;exitY=0.5;exitDx=0;exitDy=0;entryX=0;entryY=0.5;entryDx=0;entryDy=0;shadow=0;shape=link;" edge="1" parent="1" source="v8KTxebTHkAycU05WxjB-9" target="v8KTxebTHkAycU05WxjB-5">
          <mxGeometry width="50" height="50" relative="1" as="geometry">
            <mxPoint x="536" y="417" as="sourcePoint" />
            <mxPoint x="588" y="417" as="targetPoint" />
          </mxGeometry>
        </mxCell>
        <mxCell id="v8KTxebTHkAycU05WxjB-31" value="" style="endArrow=none;html=1;rounded=0;entryX=0.5;entryY=1;entryDx=0;entryDy=0;shadow=0;shape=link;" edge="1" parent="1" source="v8KTxebTHkAycU05WxjB-12" target="v8KTxebTHkAycU05WxjB-5">
          <mxGeometry width="50" height="50" relative="1" as="geometry">
            <mxPoint x="643" y="417" as="sourcePoint" />
            <mxPoint x="708" y="417" as="targetPoint" />
          </mxGeometry>
        </mxCell>
        <mxCell id="v8KTxebTHkAycU05WxjB-32" value="" style="endArrow=none;html=1;rounded=0;entryX=0.5;entryY=1;entryDx=0;entryDy=0;shadow=0;exitX=0.5;exitY=0;exitDx=0;exitDy=0;shape=link;" edge="1" parent="1" source="v8KTxebTHkAycU05WxjB-13" target="v8KTxebTHkAycU05WxjB-12">
          <mxGeometry width="50" height="50" relative="1" as="geometry">
            <mxPoint x="748" y="478" as="sourcePoint" />
            <mxPoint x="748" y="432" as="targetPoint" />
          </mxGeometry>
        </mxCell>
        <mxCell id="v8KTxebTHkAycU05WxjB-33" value="" style="endArrow=none;html=1;rounded=0;entryX=0.5;entryY=0;entryDx=0;entryDy=0;shadow=0;exitX=0.5;exitY=1;exitDx=0;exitDy=0;shape=link;" edge="1" parent="1" source="v8KTxebTHkAycU05WxjB-13" target="v8KTxebTHkAycU05WxjB-15">
          <mxGeometry width="50" height="50" relative="1" as="geometry">
            <mxPoint x="748" y="574" as="sourcePoint" />
            <mxPoint x="748" y="528" as="targetPoint" />
          </mxGeometry>
        </mxCell>
        <mxCell id="v8KTxebTHkAycU05WxjB-34" value="" style="endArrow=none;html=1;rounded=0;entryX=0.5;entryY=0;entryDx=0;entryDy=0;shadow=0;exitX=0.5;exitY=1;exitDx=0;exitDy=0;shape=link;" edge="1" parent="1" source="v8KTxebTHkAycU05WxjB-15" target="v8KTxebTHkAycU05WxjB-14">
          <mxGeometry width="50" height="50" relative="1" as="geometry">
            <mxPoint x="748" y="604" as="sourcePoint" />
            <mxPoint x="748" y="656" as="targetPoint" />
          </mxGeometry>
        </mxCell>
        <mxCell id="v8KTxebTHkAycU05WxjB-35" value="" style="endArrow=none;html=1;rounded=0;entryX=0.5;entryY=0;entryDx=0;entryDy=0;exitX=0.5;exitY=1;exitDx=0;exitDy=0;shape=link;" edge="1" parent="1" source="v8KTxebTHkAycU05WxjB-11" target="v8KTxebTHkAycU05WxjB-4">
          <mxGeometry width="50" height="50" relative="1" as="geometry">
            <mxPoint x="64" y="604" as="sourcePoint" />
            <mxPoint x="64" y="443" as="targetPoint" />
          </mxGeometry>
        </mxCell>
        <mxCell id="v8KTxebTHkAycU05WxjB-36" value="" style="endArrow=none;html=1;rounded=0;entryX=0.5;entryY=0;entryDx=0;entryDy=0;exitX=0.5;exitY=1;exitDx=0;exitDy=0;shape=link;" edge="1" parent="1" source="v8KTxebTHkAycU05WxjB-10" target="v8KTxebTHkAycU05WxjB-11">
          <mxGeometry width="50" height="50" relative="1" as="geometry">
            <mxPoint x="496" y="348" as="sourcePoint" />
            <mxPoint x="496" y="402" as="targetPoint" />
          </mxGeometry>
        </mxCell>
        <mxCell id="v8KTxebTHkAycU05WxjB-38" value="&lt;div style=&quot;line-height: 80%;&quot;&gt;&lt;span style=&quot;background-color: initial;&quot;&gt;&lt;font style=&quot;font-size: 10px;&quot;&gt;Service taker name&lt;/font&gt;&lt;/span&gt;&lt;/div&gt;" style="ellipse;whiteSpace=wrap;html=1;align=center;" vertex="1" parent="1">
          <mxGeometry x="79.5" y="657" width="48" height="37" as="geometry" />
        </mxCell>
        <mxCell id="v8KTxebTHkAycU05WxjB-39" value="&lt;div style=&quot;line-height: 80%;&quot;&gt;&lt;span style=&quot;background-color: initial;&quot;&gt;&lt;font style=&quot;font-size: 10px;&quot;&gt;Service name&lt;/font&gt;&lt;/span&gt;&lt;/div&gt;" style="ellipse;whiteSpace=wrap;html=1;align=center;" vertex="1" parent="1">
          <mxGeometry y="658" width="48" height="37" as="geometry" />
        </mxCell>
        <mxCell id="v8KTxebTHkAycU05WxjB-40" value="&lt;div style=&quot;line-height: 80%;&quot;&gt;&lt;span style=&quot;background-color: initial;&quot;&gt;&lt;font style=&quot;font-size: 10px;&quot;&gt;Service id&lt;/font&gt;&lt;/span&gt;&lt;/div&gt;" style="ellipse;whiteSpace=wrap;html=1;align=center;" vertex="1" parent="1">
          <mxGeometry x="44" y="694" width="48" height="37" as="geometry" />
        </mxCell>
        <mxCell id="v8KTxebTHkAycU05WxjB-41" value="&lt;div style=&quot;line-height: 80%;&quot;&gt;&lt;span style=&quot;background-color: initial;&quot;&gt;&lt;font style=&quot;font-size: 10px;&quot;&gt;reviewer id&lt;/font&gt;&lt;/span&gt;&lt;/div&gt;" style="ellipse;whiteSpace=wrap;html=1;align=center;" vertex="1" parent="1">
          <mxGeometry x="173.5" y="658" width="47" height="37" as="geometry" />
        </mxCell>
        <mxCell id="v8KTxebTHkAycU05WxjB-43" value="&lt;div style=&quot;line-height: 80%;&quot;&gt;&lt;span style=&quot;background-color: initial;&quot;&gt;&lt;font style=&quot;font-size: 10px;&quot;&gt;reviewer name&amp;nbsp;&lt;/font&gt;&lt;/span&gt;&lt;/div&gt;" style="ellipse;whiteSpace=wrap;html=1;align=center;" vertex="1" parent="1">
          <mxGeometry x="236" y="657" width="47" height="37" as="geometry" />
        </mxCell>
        <mxCell id="v8KTxebTHkAycU05WxjB-44" value="&lt;div style=&quot;line-height: 80%;&quot;&gt;&lt;span style=&quot;background-color: initial;&quot;&gt;&lt;font style=&quot;font-size: 10px;&quot;&gt;review details&lt;/font&gt;&lt;/span&gt;&lt;/div&gt;" style="ellipse;whiteSpace=wrap;html=1;align=center;" vertex="1" parent="1">
          <mxGeometry x="288" y="592" width="47" height="37" as="geometry" />
        </mxCell>
        <mxCell id="v8KTxebTHkAycU05WxjB-45" value="&lt;div style=&quot;line-height: 80%;&quot;&gt;&lt;span style=&quot;background-color: initial;&quot;&gt;&lt;font style=&quot;font-size: 10px;&quot;&gt;payment id&lt;/font&gt;&lt;/span&gt;&lt;/div&gt;" style="ellipse;whiteSpace=wrap;html=1;align=center;" vertex="1" parent="1">
          <mxGeometry x="79.5" y="130" width="48" height="37" as="geometry" />
        </mxCell>
        <mxCell id="v8KTxebTHkAycU05WxjB-46" value="&lt;div style=&quot;line-height: 80%;&quot;&gt;&lt;span style=&quot;background-color: initial;&quot;&gt;&lt;font style=&quot;font-size: 10px;&quot;&gt;payment type&lt;/font&gt;&lt;/span&gt;&lt;/div&gt;" style="ellipse;whiteSpace=wrap;html=1;align=center;" vertex="1" parent="1">
          <mxGeometry x="156" y="130" width="48" height="37" as="geometry" />
        </mxCell>
        <mxCell id="v8KTxebTHkAycU05WxjB-47" value="&lt;div style=&quot;line-height: 80%;&quot;&gt;&lt;span style=&quot;background-color: initial;&quot;&gt;&lt;font style=&quot;font-size: 10px;&quot;&gt;payment method&lt;/font&gt;&lt;/span&gt;&lt;/div&gt;" style="ellipse;whiteSpace=wrap;html=1;align=center;" vertex="1" parent="1">
          <mxGeometry x="223.5" y="130" width="48" height="37" as="geometry" />
        </mxCell>
        <mxCell id="v8KTxebTHkAycU05WxjB-48" value="&lt;div style=&quot;line-height: 80%;&quot;&gt;&lt;span style=&quot;font-size: 10px;&quot;&gt;rent giver id&lt;/span&gt;&lt;/div&gt;" style="ellipse;whiteSpace=wrap;html=1;align=center;" vertex="1" parent="1">
          <mxGeometry x="377" y="130" width="48" height="37" as="geometry" />
        </mxCell>
        <mxCell id="v8KTxebTHkAycU05WxjB-49" value="&lt;div style=&quot;line-height: 80%;&quot;&gt;&lt;span style=&quot;font-size: 10px;&quot;&gt;rent giver name&lt;/span&gt;&lt;/div&gt;" style="ellipse;whiteSpace=wrap;html=1;align=center;" vertex="1" parent="1">
          <mxGeometry x="432" y="118" width="48" height="37" as="geometry" />
        </mxCell>
        <mxCell id="v8KTxebTHkAycU05WxjB-50" value="&lt;div style=&quot;line-height: 80%;&quot;&gt;&lt;span style=&quot;font-size: 10px;&quot;&gt;rent giving time &amp;amp; date&amp;nbsp;&lt;/span&gt;&lt;/div&gt;" style="ellipse;whiteSpace=wrap;html=1;align=center;" vertex="1" parent="1">
          <mxGeometry x="492" y="118" width="60" height="37" as="geometry" />
        </mxCell>
        <mxCell id="v8KTxebTHkAycU05WxjB-52" value="&lt;div style=&quot;line-height: 80%;&quot;&gt;&lt;span style=&quot;background-color: initial;&quot;&gt;&lt;font style=&quot;font-size: 10px;&quot;&gt;tenant id&lt;/font&gt;&lt;/span&gt;&lt;/div&gt;" style="ellipse;whiteSpace=wrap;html=1;align=center;" vertex="1" parent="1">
          <mxGeometry x="236" y="299" width="48" height="37" as="geometry" />
        </mxCell>
        <mxCell id="v8KTxebTHkAycU05WxjB-53" value="&lt;div style=&quot;line-height: 80%;&quot;&gt;&lt;span style=&quot;background-color: initial;&quot;&gt;&lt;font style=&quot;font-size: 10px;&quot;&gt;tenant name&lt;/font&gt;&lt;/span&gt;&lt;/div&gt;" style="ellipse;whiteSpace=wrap;html=1;align=center;" vertex="1" parent="1">
          <mxGeometry x="264" y="336" width="48" height="37" as="geometry" />
        </mxCell>
        <mxCell id="v8KTxebTHkAycU05WxjB-54" value="&lt;div style=&quot;line-height: 80%;&quot;&gt;&lt;span style=&quot;background-color: initial;&quot;&gt;&lt;font style=&quot;font-size: 10px;&quot;&gt;tenant details&lt;/font&gt;&lt;/span&gt;&lt;/div&gt;" style="ellipse;whiteSpace=wrap;html=1;align=center;" vertex="1" parent="1">
          <mxGeometry x="96" y="322" width="48" height="37" as="geometry" />
        </mxCell>
        <mxCell id="v8KTxebTHkAycU05WxjB-55" value="&lt;div style=&quot;line-height: 80%;&quot;&gt;&lt;span style=&quot;background-color: initial;&quot;&gt;&lt;font style=&quot;font-size: 10px;&quot;&gt;tenant password&lt;/font&gt;&lt;/span&gt;&lt;/div&gt;" style="ellipse;whiteSpace=wrap;html=1;align=center;" vertex="1" parent="1">
          <mxGeometry x="252" y="431" width="48" height="37" as="geometry" />
        </mxCell>
        <mxCell id="v8KTxebTHkAycU05WxjB-56" value="&lt;div style=&quot;line-height: 80%;&quot;&gt;&lt;span style=&quot;background-color: initial;&quot;&gt;&lt;font style=&quot;font-size: 10px;&quot;&gt;house&lt;/font&gt;&lt;/span&gt;&lt;/div&gt;&lt;div style=&quot;line-height: 80%;&quot;&gt;&lt;span style=&quot;background-color: initial;&quot;&gt;&lt;font style=&quot;font-size: 10px;&quot;&gt;owner id&lt;/font&gt;&lt;/span&gt;&lt;/div&gt;" style="ellipse;whiteSpace=wrap;html=1;align=center;" vertex="1" parent="1">
          <mxGeometry x="384" y="311" width="48" height="37" as="geometry" />
        </mxCell>
        <mxCell id="v8KTxebTHkAycU05WxjB-57" value="&lt;div style=&quot;line-height: 80%;&quot;&gt;&lt;span style=&quot;background-color: initial;&quot;&gt;&lt;font style=&quot;font-size: 10px;&quot;&gt;house&lt;/font&gt;&lt;/span&gt;&lt;/div&gt;&lt;div style=&quot;line-height: 80%;&quot;&gt;&lt;span style=&quot;background-color: initial;&quot;&gt;&lt;font style=&quot;font-size: 10px;&quot;&gt;owner name&lt;/font&gt;&lt;/span&gt;&lt;/div&gt;" style="ellipse;whiteSpace=wrap;html=1;align=center;" vertex="1" parent="1">
          <mxGeometry x="528" y="311" width="48" height="37" as="geometry" />
        </mxCell>
        <mxCell id="v8KTxebTHkAycU05WxjB-58" value="&lt;div style=&quot;line-height: 80%;&quot;&gt;&lt;span style=&quot;background-color: initial;&quot;&gt;&lt;font style=&quot;font-size: 10px;&quot;&gt;house&lt;/font&gt;&lt;/span&gt;&lt;/div&gt;&lt;div style=&quot;line-height: 80%;&quot;&gt;&lt;span style=&quot;background-color: initial;&quot;&gt;&lt;font style=&quot;font-size: 10px;&quot;&gt;owner passwor&lt;/font&gt;&lt;/span&gt;&lt;/div&gt;" style="ellipse;whiteSpace=wrap;html=1;align=center;" vertex="1" parent="1">
          <mxGeometry x="348" y="441" width="60" height="37" as="geometry" />
        </mxCell>
        <mxCell id="v8KTxebTHkAycU05WxjB-59" value="&lt;div style=&quot;line-height: 80%;&quot;&gt;&lt;span style=&quot;font-size: 10px;&quot;&gt;house number&lt;/span&gt;&lt;/div&gt;" style="ellipse;whiteSpace=wrap;html=1;align=center;" vertex="1" parent="1">
          <mxGeometry x="672" y="311" width="48" height="37" as="geometry" />
        </mxCell>
        <mxCell id="v8KTxebTHkAycU05WxjB-60" value="&lt;div style=&quot;line-height: 80%;&quot;&gt;&lt;span style=&quot;font-size: 10px;&quot;&gt;house name&amp;nbsp;&lt;/span&gt;&lt;/div&gt;" style="ellipse;whiteSpace=wrap;html=1;align=center;" vertex="1" parent="1">
          <mxGeometry x="712" y="274" width="48" height="37" as="geometry" />
        </mxCell>
        <mxCell id="v8KTxebTHkAycU05WxjB-61" value="&lt;div style=&quot;line-height: 80%;&quot;&gt;&lt;span style=&quot;font-size: 10px;&quot;&gt;house address&amp;nbsp;&lt;/span&gt;&lt;/div&gt;" style="ellipse;whiteSpace=wrap;html=1;align=center;" vertex="1" parent="1">
          <mxGeometry x="763.5" y="311" width="48" height="37" as="geometry" />
        </mxCell>
        <mxCell id="v8KTxebTHkAycU05WxjB-64" value="&lt;div style=&quot;line-height: 80%;&quot;&gt;&lt;span style=&quot;font-size: 10px;&quot;&gt;floor number&lt;/span&gt;&lt;/div&gt;" style="ellipse;whiteSpace=wrap;html=1;align=center;" vertex="1" parent="1">
          <mxGeometry x="579.5" y="558.5" width="48" height="37" as="geometry" />
        </mxCell>
        <mxCell id="v8KTxebTHkAycU05WxjB-66" value="&lt;div style=&quot;line-height: 80%;&quot;&gt;&lt;span style=&quot;font-size: 10px;&quot;&gt;flat number&lt;/span&gt;&lt;/div&gt;" style="ellipse;whiteSpace=wrap;html=1;align=center;" vertex="1" parent="1">
          <mxGeometry x="583" y="706" width="48" height="37" as="geometry" />
        </mxCell>
        <mxCell id="v8KTxebTHkAycU05WxjB-67" value="&lt;div style=&quot;line-height: 80%;&quot;&gt;&lt;span style=&quot;font-size: 10px;&quot;&gt;flat type&lt;/span&gt;&lt;/div&gt;" style="ellipse;whiteSpace=wrap;html=1;align=center;" vertex="1" parent="1">
          <mxGeometry x="612" y="802" width="48" height="37" as="geometry" />
        </mxCell>
        <mxCell id="v8KTxebTHkAycU05WxjB-68" value="&lt;div style=&quot;line-height: 80%;&quot;&gt;&lt;span style=&quot;background-color: initial;&quot;&gt;&lt;font style=&quot;font-size: 10px;&quot;&gt;house&lt;/font&gt;&lt;/span&gt;&lt;/div&gt;&lt;div style=&quot;line-height: 80%;&quot;&gt;&lt;span style=&quot;background-color: initial;&quot;&gt;&lt;font style=&quot;font-size: 10px;&quot;&gt;owner phone number&lt;/font&gt;&lt;/span&gt;&lt;/div&gt;" style="ellipse;whiteSpace=wrap;html=1;align=center;" vertex="1" parent="1">
          <mxGeometry x="454" y="466" width="60" height="37" as="geometry" />
        </mxCell>
        <mxCell id="v8KTxebTHkAycU05WxjB-69" value="&lt;div style=&quot;line-height: 80%;&quot;&gt;&lt;span style=&quot;font-size: 10px; background-color: initial;&quot;&gt;tenant phone number&lt;/span&gt;&lt;br&gt;&lt;/div&gt;" style="ellipse;whiteSpace=wrap;html=1;align=center;" vertex="1" parent="1">
          <mxGeometry x="90" y="431" width="60" height="37" as="geometry" />
        </mxCell>
        <mxCell id="v8KTxebTHkAycU05WxjB-74" value="" style="edgeStyle=orthogonalEdgeStyle;rounded=0;orthogonalLoop=1;jettySize=auto;html=1;exitX=0.75;exitY=0;exitDx=0;exitDy=0;entryX=0.5;entryY=1;entryDx=0;entryDy=0;" edge="1" parent="1" source="v8KTxebTHkAycU05WxjB-5" target="v8KTxebTHkAycU05WxjB-61">
          <mxGeometry relative="1" as="geometry">
            <mxPoint x="748" y="402" as="sourcePoint" />
            <mxPoint x="748" y="323" as="targetPoint" />
          </mxGeometry>
        </mxCell>
        <mxCell id="v8KTxebTHkAycU05WxjB-75" value="" style="edgeStyle=orthogonalEdgeStyle;rounded=0;orthogonalLoop=1;jettySize=auto;html=1;exitX=0.157;exitY=-0.008;exitDx=0;exitDy=0;entryX=0.5;entryY=1;entryDx=0;entryDy=0;exitPerimeter=0;" edge="1" parent="1" source="v8KTxebTHkAycU05WxjB-5" target="v8KTxebTHkAycU05WxjB-59">
          <mxGeometry relative="1" as="geometry">
            <mxPoint x="768" y="402" as="sourcePoint" />
            <mxPoint x="800" y="360" as="targetPoint" />
          </mxGeometry>
        </mxCell>
        <mxCell id="v8KTxebTHkAycU05WxjB-79" value="" style="edgeStyle=orthogonalEdgeStyle;rounded=0;orthogonalLoop=1;jettySize=auto;html=1;entryX=0.5;entryY=1;entryDx=0;entryDy=0;exitX=0.75;exitY=0;exitDx=0;exitDy=0;" edge="1" parent="1" source="v8KTxebTHkAycU05WxjB-4" target="v8KTxebTHkAycU05WxjB-57">
          <mxGeometry relative="1" as="geometry">
            <mxPoint x="496" y="432" as="sourcePoint" />
            <mxPoint x="496" y="478" as="targetPoint" />
          </mxGeometry>
        </mxCell>
        <mxCell id="v8KTxebTHkAycU05WxjB-80" value="" style="edgeStyle=orthogonalEdgeStyle;rounded=0;orthogonalLoop=1;jettySize=auto;html=1;entryX=0.5;entryY=1;entryDx=0;entryDy=0;exitX=0.25;exitY=0;exitDx=0;exitDy=0;" edge="1" parent="1" source="v8KTxebTHkAycU05WxjB-4" target="v8KTxebTHkAycU05WxjB-56">
          <mxGeometry relative="1" as="geometry">
            <mxPoint x="516" y="402" as="sourcePoint" />
            <mxPoint x="564" y="360" as="targetPoint" />
          </mxGeometry>
        </mxCell>
        <mxCell id="v8KTxebTHkAycU05WxjB-81" value="" style="edgeStyle=orthogonalEdgeStyle;rounded=0;orthogonalLoop=1;jettySize=auto;html=1;exitX=1;exitY=0;exitDx=0;exitDy=0;entryX=0.5;entryY=1;entryDx=0;entryDy=0;" edge="1" parent="1" source="v8KTxebTHkAycU05WxjB-2" target="v8KTxebTHkAycU05WxjB-53">
          <mxGeometry relative="1" as="geometry">
            <mxPoint x="476" y="402" as="sourcePoint" />
            <mxPoint x="276" y="360" as="targetPoint" />
            <Array as="points">
              <mxPoint x="236" y="393" />
              <mxPoint x="288" y="393" />
            </Array>
          </mxGeometry>
        </mxCell>
        <mxCell id="v8KTxebTHkAycU05WxjB-82" value="" style="edgeStyle=orthogonalEdgeStyle;rounded=0;orthogonalLoop=1;jettySize=auto;html=1;entryX=0;entryY=1;entryDx=0;entryDy=0;exitX=0.75;exitY=0;exitDx=0;exitDy=0;" edge="1" parent="1" source="v8KTxebTHkAycU05WxjB-2" target="v8KTxebTHkAycU05WxjB-52">
          <mxGeometry relative="1" as="geometry">
            <mxPoint x="240" y="382" as="sourcePoint" />
            <mxPoint x="300" y="385" as="targetPoint" />
            <Array as="points">
              <mxPoint x="228" y="390" />
              <mxPoint x="228" y="330" />
            </Array>
          </mxGeometry>
        </mxCell>
        <mxCell id="v8KTxebTHkAycU05WxjB-84" value="" style="endArrow=classic;html=1;rounded=0;exitX=0;exitY=0;exitDx=0;exitDy=0;entryX=0.5;entryY=1;entryDx=0;entryDy=0;" edge="1" parent="1" source="v8KTxebTHkAycU05WxjB-2" target="v8KTxebTHkAycU05WxjB-54">
          <mxGeometry width="50" height="50" relative="1" as="geometry">
            <mxPoint x="372" y="504" as="sourcePoint" />
            <mxPoint x="422" y="454" as="targetPoint" />
          </mxGeometry>
        </mxCell>
        <mxCell id="v8KTxebTHkAycU05WxjB-85" value="" style="endArrow=classic;html=1;rounded=0;exitX=0.25;exitY=1;exitDx=0;exitDy=0;entryX=1;entryY=0.5;entryDx=0;entryDy=0;" edge="1" parent="1" source="v8KTxebTHkAycU05WxjB-2" target="v8KTxebTHkAycU05WxjB-69">
          <mxGeometry width="50" height="50" relative="1" as="geometry">
            <mxPoint x="168" y="402" as="sourcePoint" />
            <mxPoint x="132" y="371" as="targetPoint" />
          </mxGeometry>
        </mxCell>
        <mxCell id="v8KTxebTHkAycU05WxjB-86" value="" style="endArrow=classic;html=1;rounded=0;exitX=0.75;exitY=1;exitDx=0;exitDy=0;entryX=0;entryY=0;entryDx=0;entryDy=0;" edge="1" parent="1" source="v8KTxebTHkAycU05WxjB-2" target="v8KTxebTHkAycU05WxjB-55">
          <mxGeometry width="50" height="50" relative="1" as="geometry">
            <mxPoint x="177" y="436" as="sourcePoint" />
            <mxPoint x="162" y="462" as="targetPoint" />
          </mxGeometry>
        </mxCell>
        <mxCell id="v8KTxebTHkAycU05WxjB-87" value="" style="endArrow=classic;html=1;rounded=0;entryX=0.5;entryY=1;entryDx=0;entryDy=0;exitX=0;exitY=0;exitDx=0;exitDy=0;" edge="1" parent="1" source="v8KTxebTHkAycU05WxjB-7" target="v8KTxebTHkAycU05WxjB-45">
          <mxGeometry width="50" height="50" relative="1" as="geometry">
            <mxPoint x="372" y="276" as="sourcePoint" />
            <mxPoint x="422" y="226" as="targetPoint" />
          </mxGeometry>
        </mxCell>
        <mxCell id="v8KTxebTHkAycU05WxjB-88" value="" style="endArrow=classic;html=1;rounded=0;entryX=0.5;entryY=1;entryDx=0;entryDy=0;exitX=0.5;exitY=0;exitDx=0;exitDy=0;" edge="1" parent="1" source="v8KTxebTHkAycU05WxjB-7" target="v8KTxebTHkAycU05WxjB-46">
          <mxGeometry width="50" height="50" relative="1" as="geometry">
            <mxPoint x="372" y="276" as="sourcePoint" />
            <mxPoint x="422" y="226" as="targetPoint" />
          </mxGeometry>
        </mxCell>
        <mxCell id="v8KTxebTHkAycU05WxjB-89" value="" style="endArrow=classic;html=1;rounded=0;entryX=0.5;entryY=1;entryDx=0;entryDy=0;exitX=1;exitY=0;exitDx=0;exitDy=0;" edge="1" parent="1" source="v8KTxebTHkAycU05WxjB-7" target="v8KTxebTHkAycU05WxjB-47">
          <mxGeometry width="50" height="50" relative="1" as="geometry">
            <mxPoint x="372" y="276" as="sourcePoint" />
            <mxPoint x="422" y="226" as="targetPoint" />
          </mxGeometry>
        </mxCell>
        <mxCell id="v8KTxebTHkAycU05WxjB-90" value="" style="endArrow=classic;html=1;rounded=0;entryX=0.5;entryY=1;entryDx=0;entryDy=0;exitX=0;exitY=0;exitDx=0;exitDy=0;" edge="1" parent="1" source="v8KTxebTHkAycU05WxjB-10" target="v8KTxebTHkAycU05WxjB-48">
          <mxGeometry width="50" height="50" relative="1" as="geometry">
            <mxPoint x="372" y="276" as="sourcePoint" />
            <mxPoint x="422" y="226" as="targetPoint" />
          </mxGeometry>
        </mxCell>
        <mxCell id="v8KTxebTHkAycU05WxjB-91" value="" style="endArrow=classic;html=1;rounded=0;entryX=0.5;entryY=1;entryDx=0;entryDy=0;exitX=0.25;exitY=0;exitDx=0;exitDy=0;" edge="1" parent="1" source="v8KTxebTHkAycU05WxjB-10" target="v8KTxebTHkAycU05WxjB-49">
          <mxGeometry width="50" height="50" relative="1" as="geometry">
            <mxPoint x="372" y="276" as="sourcePoint" />
            <mxPoint x="422" y="226" as="targetPoint" />
          </mxGeometry>
        </mxCell>
        <mxCell id="v8KTxebTHkAycU05WxjB-92" value="" style="endArrow=classic;html=1;rounded=0;entryX=0.5;entryY=1;entryDx=0;entryDy=0;exitX=0.75;exitY=0;exitDx=0;exitDy=0;" edge="1" parent="1" source="v8KTxebTHkAycU05WxjB-10" target="v8KTxebTHkAycU05WxjB-50">
          <mxGeometry width="50" height="50" relative="1" as="geometry">
            <mxPoint x="372" y="276" as="sourcePoint" />
            <mxPoint x="422" y="226" as="targetPoint" />
          </mxGeometry>
        </mxCell>
        <mxCell id="v8KTxebTHkAycU05WxjB-93" value="" style="endArrow=classic;html=1;rounded=0;exitX=0;exitY=1;exitDx=0;exitDy=0;entryX=1;entryY=0.5;entryDx=0;entryDy=0;" edge="1" parent="1" source="v8KTxebTHkAycU05WxjB-14" target="v8KTxebTHkAycU05WxjB-67">
          <mxGeometry width="50" height="50" relative="1" as="geometry">
            <mxPoint x="372" y="744" as="sourcePoint" />
            <mxPoint x="422" y="694" as="targetPoint" />
          </mxGeometry>
        </mxCell>
        <mxCell id="v8KTxebTHkAycU05WxjB-94" value="" style="endArrow=classic;html=1;rounded=0;exitX=1;exitY=0.5;exitDx=0;exitDy=0;entryX=0;entryY=0.5;entryDx=0;entryDy=0;" edge="1" parent="1" source="v8KTxebTHkAycU05WxjB-17" target="v8KTxebTHkAycU05WxjB-44">
          <mxGeometry width="50" height="50" relative="1" as="geometry">
            <mxPoint x="372" y="624" as="sourcePoint" />
            <mxPoint x="422" y="574" as="targetPoint" />
          </mxGeometry>
        </mxCell>
        <mxCell id="v8KTxebTHkAycU05WxjB-95" value="" style="endArrow=classic;html=1;rounded=0;exitX=1;exitY=1;exitDx=0;exitDy=0;entryX=0.5;entryY=0;entryDx=0;entryDy=0;" edge="1" parent="1" source="v8KTxebTHkAycU05WxjB-17" target="v8KTxebTHkAycU05WxjB-43">
          <mxGeometry width="50" height="50" relative="1" as="geometry">
            <mxPoint x="372" y="624" as="sourcePoint" />
            <mxPoint x="422" y="574" as="targetPoint" />
          </mxGeometry>
        </mxCell>
        <mxCell id="v8KTxebTHkAycU05WxjB-96" value="" style="endArrow=classic;html=1;rounded=0;exitX=0.5;exitY=1;exitDx=0;exitDy=0;entryX=0.5;entryY=0;entryDx=0;entryDy=0;" edge="1" parent="1" source="v8KTxebTHkAycU05WxjB-17" target="v8KTxebTHkAycU05WxjB-41">
          <mxGeometry width="50" height="50" relative="1" as="geometry">
            <mxPoint x="248" y="634" as="sourcePoint" />
            <mxPoint x="271" y="669" as="targetPoint" />
          </mxGeometry>
        </mxCell>
        <mxCell id="v8KTxebTHkAycU05WxjB-97" value="" style="endArrow=classic;html=1;rounded=0;exitX=1;exitY=1;exitDx=0;exitDy=0;entryX=0.5;entryY=0;entryDx=0;entryDy=0;" edge="1" parent="1" source="v8KTxebTHkAycU05WxjB-19" target="v8KTxebTHkAycU05WxjB-38">
          <mxGeometry width="50" height="50" relative="1" as="geometry">
            <mxPoint x="248" y="619" as="sourcePoint" />
            <mxPoint x="300" y="623" as="targetPoint" />
          </mxGeometry>
        </mxCell>
        <mxCell id="v8KTxebTHkAycU05WxjB-98" value="" style="endArrow=classic;html=1;rounded=0;exitX=0.5;exitY=1;exitDx=0;exitDy=0;entryX=0.5;entryY=0;entryDx=0;entryDy=0;" edge="1" parent="1" source="v8KTxebTHkAycU05WxjB-19" target="v8KTxebTHkAycU05WxjB-40">
          <mxGeometry width="50" height="50" relative="1" as="geometry">
            <mxPoint x="104" y="634" as="sourcePoint" />
            <mxPoint x="116" y="669" as="targetPoint" />
          </mxGeometry>
        </mxCell>
        <mxCell id="v8KTxebTHkAycU05WxjB-99" value="" style="endArrow=classic;html=1;rounded=0;exitX=0.25;exitY=1;exitDx=0;exitDy=0;entryX=0.683;entryY=0.041;entryDx=0;entryDy=0;entryPerimeter=0;" edge="1" parent="1" source="v8KTxebTHkAycU05WxjB-19" target="v8KTxebTHkAycU05WxjB-39">
          <mxGeometry width="50" height="50" relative="1" as="geometry">
            <mxPoint x="64" y="634" as="sourcePoint" />
            <mxPoint x="24.000000000000227" y="657" as="targetPoint" />
          </mxGeometry>
        </mxCell>
        <mxCell id="v8KTxebTHkAycU05WxjB-103" value="m" style="text;html=1;strokeColor=none;fillColor=none;align=center;verticalAlign=middle;whiteSpace=wrap;rounded=0;" vertex="1" parent="1">
          <mxGeometry x="96" y="381" width="60" height="30" as="geometry" />
        </mxCell>
        <mxCell id="v8KTxebTHkAycU05WxjB-104" value="n" style="text;html=1;strokeColor=none;fillColor=none;align=center;verticalAlign=middle;whiteSpace=wrap;rounded=0;" vertex="1" parent="1">
          <mxGeometry x="36" y="558.5" width="60" height="30" as="geometry" />
        </mxCell>
        <mxCell id="v8KTxebTHkAycU05WxjB-106" value="1" style="text;html=1;strokeColor=none;fillColor=none;align=center;verticalAlign=middle;whiteSpace=wrap;rounded=0;" vertex="1" parent="1">
          <mxGeometry x="176" y="434.5" width="60" height="30" as="geometry" />
        </mxCell>
        <mxCell id="v8KTxebTHkAycU05WxjB-107" value="m" style="text;html=1;strokeColor=none;fillColor=none;align=center;verticalAlign=middle;whiteSpace=wrap;rounded=0;" vertex="1" parent="1">
          <mxGeometry x="173.5" y="558.5" width="60" height="30" as="geometry" />
        </mxCell>
        <mxCell id="v8KTxebTHkAycU05WxjB-108" value="1" style="text;html=1;strokeColor=none;fillColor=none;align=center;verticalAlign=middle;whiteSpace=wrap;rounded=0;" vertex="1" parent="1">
          <mxGeometry x="156" y="350" width="60" height="30" as="geometry" />
        </mxCell>
        <mxCell id="v8KTxebTHkAycU05WxjB-109" value="m" style="text;html=1;strokeColor=none;fillColor=none;align=center;verticalAlign=middle;whiteSpace=wrap;rounded=0;" vertex="1" parent="1">
          <mxGeometry x="156" y="244" width="60" height="30" as="geometry" />
        </mxCell>
        <mxCell id="v8KTxebTHkAycU05WxjB-111" value="1" style="text;html=1;strokeColor=none;fillColor=none;align=center;verticalAlign=middle;whiteSpace=wrap;rounded=0;" vertex="1" parent="1">
          <mxGeometry x="233.5" y="400" width="60" height="30" as="geometry" />
        </mxCell>
        <mxCell id="v8KTxebTHkAycU05WxjB-112" value="m" style="text;html=1;strokeColor=none;fillColor=none;align=center;verticalAlign=middle;whiteSpace=wrap;rounded=0;" vertex="1" parent="1">
          <mxGeometry x="378" y="399" width="60" height="30" as="geometry" />
        </mxCell>
        <mxCell id="v8KTxebTHkAycU05WxjB-113" value="m" style="text;html=1;strokeColor=none;fillColor=none;align=center;verticalAlign=middle;whiteSpace=wrap;rounded=0;" vertex="1" parent="1">
          <mxGeometry x="514" y="399" width="60" height="30" as="geometry" />
        </mxCell>
        <mxCell id="v8KTxebTHkAycU05WxjB-114" value="n" style="text;html=1;strokeColor=none;fillColor=none;align=center;verticalAlign=middle;whiteSpace=wrap;rounded=0;" vertex="1" parent="1">
          <mxGeometry x="636" y="399" width="60" height="30" as="geometry" />
        </mxCell>
        <mxCell id="v8KTxebTHkAycU05WxjB-116" value="1" style="text;html=1;strokeColor=none;fillColor=none;align=center;verticalAlign=middle;whiteSpace=wrap;rounded=0;" vertex="1" parent="1">
          <mxGeometry x="696" y="431" width="60" height="30" as="geometry" />
        </mxCell>
        <mxCell id="v8KTxebTHkAycU05WxjB-117" value="m" style="text;html=1;strokeColor=none;fillColor=none;align=center;verticalAlign=middle;whiteSpace=wrap;rounded=0;" vertex="1" parent="1">
          <mxGeometry x="696" y="528" width="60" height="30" as="geometry" />
        </mxCell>
        <mxCell id="v8KTxebTHkAycU05WxjB-118" value="1" style="text;html=1;strokeColor=none;fillColor=none;align=center;verticalAlign=middle;whiteSpace=wrap;rounded=0;" vertex="1" parent="1">
          <mxGeometry x="696" y="599" width="60" height="30" as="geometry" />
        </mxCell>
        <mxCell id="v8KTxebTHkAycU05WxjB-119" value="m" style="text;html=1;strokeColor=none;fillColor=none;align=center;verticalAlign=middle;whiteSpace=wrap;rounded=0;" vertex="1" parent="1">
          <mxGeometry x="696" y="720.5" width="60" height="30" as="geometry" />
        </mxCell>
        <mxCell id="v8KTxebTHkAycU05WxjB-120" value="&lt;div style=&quot;line-height: 80%;&quot;&gt;&lt;span style=&quot;font-size: 10px;&quot;&gt;rent giver details&lt;/span&gt;&lt;/div&gt;" style="ellipse;whiteSpace=wrap;html=1;align=center;" vertex="1" parent="1">
          <mxGeometry x="576" y="165" width="48" height="37" as="geometry" />
        </mxCell>
        <mxCell id="v8KTxebTHkAycU05WxjB-121" value="" style="endArrow=classic;html=1;rounded=0;exitX=1;exitY=0.5;exitDx=0;exitDy=0;entryX=0;entryY=1;entryDx=0;entryDy=0;" edge="1" parent="1" source="v8KTxebTHkAycU05WxjB-10" target="v8KTxebTHkAycU05WxjB-120">
          <mxGeometry width="50" height="50" relative="1" as="geometry">
            <mxPoint x="372" y="384" as="sourcePoint" />
            <mxPoint x="422" y="334" as="targetPoint" />
          </mxGeometry>
        </mxCell>
        <mxCell id="v8KTxebTHkAycU05WxjB-122" value="1" style="text;html=1;strokeColor=none;fillColor=none;align=center;verticalAlign=middle;whiteSpace=wrap;rounded=0;" vertex="1" parent="1">
          <mxGeometry x="438" y="339.5" width="60" height="30" as="geometry" />
        </mxCell>
        <mxCell id="v8KTxebTHkAycU05WxjB-123" value="m" style="text;html=1;strokeColor=none;fillColor=none;align=center;verticalAlign=middle;whiteSpace=wrap;rounded=0;" vertex="1" parent="1">
          <mxGeometry x="438" y="244" width="60" height="30" as="geometry" />
        </mxCell>
        <mxCell id="v8KTxebTHkAycU05WxjB-125" value="" style="endArrow=classic;html=1;rounded=0;exitX=0;exitY=0.25;exitDx=0;exitDy=0;entryX=1;entryY=1;entryDx=0;entryDy=0;" edge="1" parent="1" source="v8KTxebTHkAycU05WxjB-14" target="v8KTxebTHkAycU05WxjB-66">
          <mxGeometry width="50" height="50" relative="1" as="geometry">
            <mxPoint x="372" y="624" as="sourcePoint" />
            <mxPoint x="422" y="574" as="targetPoint" />
          </mxGeometry>
        </mxCell>
        <mxCell id="v8KTxebTHkAycU05WxjB-126" value="&lt;font style=&quot;font-size: 20px;&quot;&gt;House Rent Management System&amp;nbsp;&lt;/font&gt;" style="text;html=1;align=center;verticalAlign=middle;whiteSpace=wrap;rounded=0;" vertex="1" parent="1">
          <mxGeometry x="150" y="48" width="510" height="30" as="geometry" />
        </mxCell>
      </root>
    </mxGraphModel>
  </diagram>
</mxfile>
